<?xml version="1.0" encoding="utf-8"?>
<!-- Generator: Adobe Illustrator 26.0.1, SVG Export Plug-In . SVG Version: 6.00 Build 0)  -->
<svg version="1.1" id="Layer_1" xmlns="http://www.w3.org/2000/svg" xmlns:xlink="http://www.w3.org/1999/xlink" x="0px" y="0px"
	 viewBox="0 0 1000 1000" style="enable-background:new 0 0 1000 1000;" xml:space="preserve">
<style type="text/css">
	.st0{fill:#FFFFFF;}
	.st1{stroke:#FFFFFF;stroke-width:3;stroke-miterlimit:10;}
</style>
<g>
	<path d="M140.4,500c0,0,102.2,186.5,359.6,186.5S859.6,500,859.6,500S757.3,313.5,500,313.5S140.4,500,140.4,500z"/>
	<g>
		<ellipse transform="matrix(0.7071 -0.7071 0.7071 0.7071 -207.1068 500.0001)" cx="500" cy="500" rx="108.8" ry="108.8"/>
		<path class="st0" d="M500,413.7c47.7,0,86.3,38.6,86.3,86.3s-38.6,86.3-86.3,86.3s-86.3-38.6-86.3-86.3S452.3,413.7,500,413.7
			 M500,368.7c-35.1,0-68,13.7-92.8,38.5c-24.8,24.8-38.5,57.8-38.5,92.8s13.7,68,38.5,92.8c24.8,24.8,57.8,38.5,92.8,38.5
			s68-13.7,92.8-38.5c24.8-24.8,38.5-57.8,38.5-92.8s-13.7-68-38.5-92.8C568,382.4,535.1,368.7,500,368.7L500,368.7z"/>
	</g>
</g>
<path class="st1" d="M179.8,179.8L179.8,179.8c-11.9,11.9-11.9,31.3,0,43.2L777,820.2c11.9,11.9,31.3,11.9,43.2,0l0,0
	c11.9-11.9,11.9-31.3,0-43.2L223,179.8C211.1,167.9,191.8,167.9,179.8,179.8z"/>
</svg>
