<?xml version="1.0" encoding="utf-8"?>
<!-- Generator: Adobe Illustrator 26.0.1, SVG Export Plug-In . SVG Version: 6.00 Build 0)  -->
<svg version="1.1" id="Layer_1" xmlns="http://www.w3.org/2000/svg" xmlns:xlink="http://www.w3.org/1999/xlink" x="0px"
	y="0px" viewBox="0 0 744.8 744.8" style="enable-background:new 0 0 744.8 744.8;" xml:space="preserve">
	<style type="text/css">
		.st0 {
			fill: none;
			stroke: #FFFFFF;
			stroke-width: 50;
			stroke-linecap: round;
			stroke-miterlimit: 10;
		}

		.st1 {
			fill: #FFFFFF;
		}

		.st2 {
			fill: none;
			stroke: #FFFFFF;
			stroke-width: 50;
			stroke-linecap: round;
			stroke-linejoin: round;
		}
	</style>
	<path class="st0" d="M438.8,519.7c0,0,8,119.5-119.5,119.5H179.9c-127.5,0-119.5-119.5-119.5-119.5v-160v-0.5v-134
	c0,0-8-119.5,119.5-119.5h139.4c127.5,0,119.5,119.5,119.5,119.5" />
	<path class="st1" d="M530.8,458l74.9-69.6c9.4-8.7,9.4-23.4,0-32.1l-74.9-69.6c-8.8-8.2-9.4-22.2-1.1-31l0,0
	c8.2-8.8,22.1-9.4,30.9-1.1l109.3,101.7c9.4,8.7,9.4,23.4,0,32.1L560.7,490.1c-8.8,8.2-22.7,7.7-30.9-1.1l0,0
	C521.4,480.2,521.9,466.3,530.8,458z" />
	<line class="st2" x1="282.1" y1="372.4" x2="644.6" y2="372.4" />
</svg>