<?xml version="1.0" encoding="utf-8"?>
<!-- Generator: Adobe Illustrator 26.0.1, SVG Export Plug-In . SVG Version: 6.00 Build 0)  -->
<svg version="1.1" id="Layer_1" xmlns="http://www.w3.org/2000/svg" xmlns:xlink="http://www.w3.org/1999/xlink" x="0px"
	y="0px" viewBox="0 0 1000 1000" style="enable-background:new 0 0 1000 1000;" xml:space="preserve">
	<style type="text/css">
		.st0 {
			stroke: #000000;
			stroke-width: 20;
			stroke-miterlimit: 10;
		}
	</style>
	<path class="st0" d="M797.9,685.5c-5.7,0.7-11.3,1.3-17,1.7c-8.6,0.6-17.2,0.9-25.8,0.9c-114.8,0-224.8-55.8-291.8-149.5
	c-40.7-57.1-62.5-123.1-64.8-196.4c-1.7-54.8,8.4-95.8,11.6-107c8.7-30.8,20.8-58,34.8-81.9c11.9-20.3,25.2-38.3,38.9-54
	c-23.6,0.9-46.8,3.9-69.5,8.8c-24,5.2-47.6,12.7-70.4,22.4c-47.8,20.2-90.6,49.1-127.5,85.9s-65.7,79.7-85.9,127.5
	C109.6,393.4,99,445.9,99,500s10.6,106.6,31.5,156.1c20.2,47.8,49.1,90.6,85.9,127.5s79.7,65.7,127.5,85.9
	c49.5,20.9,102,31.5,156.1,31.5s106.6-10.6,156.1-31.5c47.8-20.2,90.6-49.1,127.5-85.9c16.2-16.2,30.9-33.6,44-52.1
	c13.5-19.1,25.3-39.3,35.3-60.5C841.6,677.9,819.8,682.8,797.9,685.5z M500,851c-193.5,0-351-157.5-351-351
	c0-151.6,96.6-281.1,231.5-330c-7.1,16.2-13.3,33.4-18.5,51.8c-3.6,13-15.3,60.1-13.4,122c1.1,36.8,6.8,72.7,16.9,106.8
	c12.4,42,31.7,81.4,57.2,117.1c41.3,57.7,97.7,103.9,163.1,133.5c53.7,24.3,111.9,36.9,169.8,36.9c0.7,0,1.4,0,2.1,0
	C693.5,807.5,601.8,851,500,851z" />
</svg>