<?xml version="1.0" encoding="utf-8"?>
<!-- Generator: Adobe Illustrator 26.0.1, SVG Export Plug-In . SVG Version: 6.00 Build 0)  -->
<svg version="1.1" id="Layer_1" xmlns="http://www.w3.org/2000/svg" xmlns:xlink="http://www.w3.org/1999/xlink" x="0px" y="0px"
	 viewBox="0 0 1000 1000" style="enable-background:new 0 0 1000 1000;" xml:space="preserve">
<style type="text/css">
	.st0{fill:#D8D8D8;}
	.st1{fill:#FFFFFF;}
</style>
<g>
	<rect x="472" y="0" class="st0" width="55.9" height="171.4"/>
	
		<rect x="179.1" y="121.3" transform="matrix(0.7071 -0.7071 0.7071 0.7071 -85.7824 207.0227)" class="st0" width="55.9" height="171.4"/>
	<rect x="0" y="472" class="st0" width="171.4" height="55.9"/>
	
		<rect x="121.4" y="765" transform="matrix(0.7071 -0.7071 0.7071 0.7071 -500.0387 378.6943)" class="st0" width="171.4" height="55.9"/>
	<rect x="472" y="828.6" class="st0" width="55.9" height="171.4"/>
	
		<rect x="764.9" y="707.2" transform="matrix(0.7071 -0.7071 0.7071 0.7071 -328.4571 792.9135)" class="st0" width="55.9" height="171.4"/>
	<rect x="828.6" y="472" class="st0" width="171.4" height="55.9"/>
	
		<rect x="707.3" y="179.1" transform="matrix(0.7071 -0.7071 0.7071 0.7071 85.8521 621.3691)" class="st0" width="171.4" height="55.9"/>
</g>
<circle class="st1" cx="500" cy="500" r="212.5"/>
</svg>
